<?xml version="1.0" encoding="utf-8"?>
<!-- Generator: Adobe Illustrator 25.0.0, SVG Export Plug-In . SVG Version: 6.00 Build 0)  -->
<svg version="1.1" id="Layer_1" xmlns="http://www.w3.org/2000/svg" xmlns:xlink="http://www.w3.org/1999/xlink" x="0px" y="0px"
	 viewBox="0 0 300 200" style="enable-background:new 0 0 300 200;" xml:space="preserve">
<style type="text/css">
	.st0{fill-rule:evenodd;clip-rule:evenodd;fill:#F58220;}
	.st1{fill-rule:evenodd;clip-rule:evenodd;fill:#5299D3;}
	.st2{fill:#222E65;}
	.st3{fill-rule:evenodd;clip-rule:evenodd;fill:#04A54F;}
	.st4{fill-rule:evenodd;clip-rule:evenodd;fill:#222E65;}
</style>
<g>
	<g>
		<rect x="37.53" y="171.4" class="st0" width="248.49" height="17.56"/>
		<path class="st1" d="M5.23,101.05l28.32,93.4c0,0,3.86,7.02,8.43-1.29c4.45-8.43,74.56-193.47,74.56-193.47
			s-12.99,21.89-29.85,53.96c-14.86,28.09-32.77,64.14-47.75,100.19C34.37,147.99,8.16,103.16,5.23,101.05L5.23,101.05z"/>
		<path class="st2" d="M102.03,141.43l17.79,5.85c-1.17,5.38-3.04,9.83-5.62,13.46c-2.57,3.63-5.85,6.44-9.6,8.19
			c-3.86,1.87-8.78,2.81-14.63,2.81c-7.14,0-12.99-1.17-17.56-3.39c-4.56-2.22-8.43-6.2-11.7-11.82
			c-3.39-5.74-5.03-12.87-5.03-21.77c0-11.7,2.93-20.72,8.78-27.04c5.74-6.32,13.93-9.48,24.58-9.48c8.31,0,14.86,1.76,19.55,5.38
			c4.8,3.63,8.31,9.13,10.65,16.74l-18.02,4.21c-0.59-2.11-1.29-3.75-1.99-4.68c-1.17-1.76-2.46-3.04-4.21-3.86
			c-1.64-0.94-3.39-1.4-5.5-1.4c-4.56,0-8.08,1.99-10.53,5.97c-1.87,3.04-2.81,7.72-2.81,14.05c0,7.96,1.05,13.34,3.28,16.27
			c2.22,2.93,5.38,4.33,9.36,4.33c3.86,0,6.79-1.17,8.9-3.51C99.69,149.39,101.09,145.88,102.03,141.43L102.03,141.43z
			 M145.22,135.7l-17.56-1.99c0.7-3.28,1.64-5.97,2.93-7.84c1.17-1.87,3.04-3.51,5.38-4.92c1.64-0.94,3.98-1.76,6.91-2.34
			c2.93-0.47,6.09-0.82,9.48-0.82c5.5,0,9.95,0.35,13.23,1.05c3.39,0.59,6.09,1.99,8.31,4.1c1.52,1.52,2.81,3.51,3.75,6.2
			c0.82,2.69,1.29,5.27,1.29,7.61v22.82c0,2.34,0.12,4.21,0.47,5.62c0.23,1.4,1.17,3.98,2.11,6.2h-17.21
			c-0.7-1.4-1.4-3.28-1.52-3.98c-0.23-0.7-0.47-1.76-0.7-3.28c-2.34,2.57-4.8,4.33-7.14,5.38c-3.28,1.4-7.02,2.11-11.24,2.11
			c-5.74,0-10.07-1.4-12.99-4.21c-2.93-2.93-4.45-6.44-4.45-10.53c0-3.98,1.05-7.14,3.16-9.71c2.22-2.46,6.09-4.33,11.82-5.62
			c6.91-1.4,11.35-2.46,13.34-3.04c1.99-0.59,4.21-1.4,6.44-2.34c0-2.46-0.47-4.21-1.4-5.15c-0.94-0.94-2.46-1.4-4.92-1.4
			c-2.93,0-5.15,0.47-6.67,1.52C146.85,131.95,145.92,133.47,145.22,135.7L145.22,135.7z M161.02,146
			c-2.46,1.05-5.15,1.87-7.84,2.57c-3.75,1.05-6.09,2.22-7.02,3.16c-1.05,1.05-1.52,2.34-1.52,3.63c0,1.64,0.47,2.81,1.52,3.86
			c0.94,0.94,2.46,1.4,4.33,1.4c2.11,0,3.98-0.47,5.74-1.52s3.04-2.34,3.75-3.86c0.7-1.64,1.05-3.63,1.05-6.09V146z M190.04,118.96
			h17.21v8.43c1.64-3.63,3.28-6.09,5.03-7.49s3.98-2.11,6.55-2.11c2.69,0,5.62,0.94,8.9,2.69L222,134.65
			c-2.11-1.05-3.86-1.52-5.15-1.52c-2.34,0-4.21,1.05-5.5,3.16c-1.87,3.04-2.81,8.66-2.81,16.97v18.14h-18.49V118.96z
			 M285.32,149.63h-36.75c0.35,3.16,1.17,5.5,2.46,7.14c1.76,2.22,3.98,3.28,6.91,3.28c1.76,0,3.51-0.47,5.03-1.4
			c1.05-0.7,2.11-1.76,3.28-3.28l18.02,1.76c-2.81,5.15-6.09,8.9-9.95,11.12c-3.98,2.22-9.48,3.39-16.85,3.39
			c-6.32,0-11.24-0.94-14.86-2.93c-3.63-1.87-6.67-4.92-9.01-9.13c-2.46-4.21-3.63-9.13-3.63-14.75c0-8.08,2.46-14.51,7.14-19.55
			c4.8-4.92,11.47-7.49,19.9-7.49c6.79,0,12.17,1.17,16.15,3.39s7.02,5.5,9.01,9.71c2.11,4.21,3.16,9.71,3.16,16.5V149.63z
			 M266.71,140.15c-0.35-3.75-1.4-6.55-2.93-8.19c-1.52-1.64-3.51-2.46-6.09-2.46c-2.93,0-5.15,1.29-6.91,3.75
			c-1.17,1.52-1.87,3.86-2.11,6.91H266.71z"/>
		<path class="st3" d="M242.13,190.01c0,0,4.56,3.98,8.78,5.27c4.33,1.29,9.6,4.1,10.42,5.03c0,0-7.26-6.55-11.12-8.43
			C246.46,190.01,243.06,189.54,242.13,190.01L242.13,190.01z"/>
		<path class="st3" d="M236.04,189.54c0,0,6.09-1.17,10.3,10.3c0,0-3.75-2.69-6.09-5.15C237.8,192.23,236.04,189.54,236.04,189.54
			L236.04,189.54z"/>
		<path class="st3" d="M75.69,157.23c0,0-5.97-0.7-9.83-2.93c-3.75-2.34-9.36-4.21-10.53-4.21c0,0,9.6,0.94,13.58,2.46
			C72.77,153.96,75.34,156.18,75.69,157.23L75.69,157.23z"/>
		<path class="st3" d="M80.14,161.33c0,0-3.28-5.27-14.51-0.7c0,0,4.45,0.94,7.84,1.05C76.86,161.92,80.14,161.33,80.14,161.33
			L80.14,161.33z"/>
		<path class="st3" d="M84.59,158.52c-2.11-0.35-4.21-1.29-5.74-3.75c-1.4-2.34-1.17-4.33,0.7-6.32c0,0,2.93,4.68,3.28,5.74
			C83.3,155.13,84.47,157.59,84.59,158.52L84.59,158.52z"/>
		<path class="st3" d="M93.48,163.79c0,0-4.21-1.29-4.1-4.45c0.12-3.28,3.75-5.03,3.75-5.03S94.54,161.21,93.48,163.79L93.48,163.79
			z"/>
		<path class="st3" d="M89.5,167.18c0,0-3.28-5.27-14.51-0.7c0,0,4.45,0.94,7.84,1.05C86.23,167.77,89.5,167.18,89.5,167.18
			L89.5,167.18z"/>
		<path class="st3" d="M100.97,174.91c0,0-2.93-5.5-14.51-1.64c0,0,4.45,1.17,7.84,1.52C97.7,175.14,100.97,174.91,100.97,174.91
			L100.97,174.91z"/>
		<path class="st3" d="M105.54,171.63c0,0-3.86-0.94-3.39-4.33c0.35-3.39,2.93-5.38,2.93-5.38S106.59,168.12,105.54,171.63
			L105.54,171.63z"/>
		<path class="st3" d="M107.06,177.72c0,0-9.6-7.02-12.76-9.83c-3.28-2.93-12.06-8.78-16.74-10.07c0,0,7.14,0.82,16.97,9.13
			c9.71,8.19,12.99,9.83,12.99,9.83S106.82,178.07,107.06,177.72L107.06,177.72z"/>
		<path class="st3" d="M94.65,188.13c0,0-5.03,3.86-9.6,4.8c-4.68,1.05-10.3,3.63-11.24,4.56c0,0,8.08-6.32,12.17-8.08
			C90.09,187.67,93.72,187.43,94.65,188.13L94.65,188.13z"/>
		<path class="st3" d="M101.09,187.9c0,0-6.32-1.64-11.59,10.18c0,0,4.1-2.57,6.79-4.92C98.98,190.71,101.09,187.9,101.09,187.9
			L101.09,187.9z"/>
		<path class="st3" d="M102.49,182.4c-1.87,1.4-4.21,2.22-7.14,1.4c-2.81-0.82-4.1-2.46-4.1-5.38c0,0,5.62,1.52,6.67,1.99
			C98.98,180.88,101.68,181.81,102.49,182.4L102.49,182.4z"/>
		<path class="st3" d="M113.15,180.06c0,0-4.21,2.11-6.44-0.47c-2.34-2.57-0.82-6.67-0.82-6.67S112.09,177.25,113.15,180.06
			L113.15,180.06z"/>
		<path class="st3" d="M112.56,185.56c0,0-6.32-1.76-11.59,10.07c0,0,4.1-2.57,6.79-4.92C110.45,188.37,112.56,185.56,112.56,185.56
			L112.56,185.56z"/>
		<path class="st3" d="M126.96,182.98c0,0-6.2-2.11-12.29,9.36c0,0,4.33-2.22,7.14-4.45C124.73,185.68,126.96,182.98,126.96,182.98
			L126.96,182.98z"/>
		<path class="st3" d="M128.13,177.25c0,0-3.63,1.99-5.74-0.82c-2.22-2.93-1.76-6.44-1.76-6.44S126.37,173.74,128.13,177.25
			L128.13,177.25z"/>
		<path class="st3" d="M133.75,180.76c0,0-12.41,1.64-16.97,1.76c-4.68,0.23-15.57,2.11-20.25,4.56c0,0,6.09-4.56,19.66-5.5
			c13.58-0.82,17.32-1.87,17.32-1.87S133.86,181.11,133.75,180.76L133.75,180.76z"/>
		<path class="st3" d="M260.27,159.93c0,0,5.97-0.7,9.83-3.04c3.75-2.34,9.36-4.21,10.65-4.21c0,0-9.71,0.94-13.69,2.46
			C263.08,156.65,260.5,158.76,260.27,159.93L260.27,159.93z"/>
		<path class="st3" d="M255.71,164.02c0,0,3.28-5.38,14.63-0.7c0,0-4.45,0.94-7.84,1.05C258.98,164.49,255.71,164.02,255.71,164.02
			L255.71,164.02z"/>
		<path class="st3" d="M251.26,161.1c2.11-0.23,4.33-1.29,5.74-3.63c1.4-2.46,1.17-4.45-0.7-6.44c0,0-2.81,4.8-3.28,5.74
			C252.66,157.7,251.37,160.16,251.26,161.1L251.26,161.1z"/>
		<path class="st3" d="M242.36,166.48c0,0,4.21-1.29,4.1-4.56c-0.12-3.28-3.86-5.03-3.86-5.03S241.31,163.79,242.36,166.48
			L242.36,166.48z"/>
		<path class="st3" d="M246.34,169.88c0,0,3.28-5.38,14.63-0.7c0,0-4.56,0.94-7.96,1.05C249.62,170.34,246.34,169.88,246.34,169.88
			L246.34,169.88z"/>
		<path class="st3" d="M234.87,177.6c0,0,2.81-5.62,14.51-1.64c0,0-4.45,1.17-7.84,1.52S234.87,177.6,234.87,177.6L234.87,177.6z"/>
		<path class="st3" d="M230.19,174.32c0,0,3.86-0.94,3.51-4.33c-0.47-3.39-3.04-5.5-3.04-5.5S229.14,170.81,230.19,174.32
			L230.19,174.32z"/>
		<path class="st3" d="M228.79,180.53c0,0,9.48-7.14,12.76-9.95c3.28-2.93,12.06-8.78,16.85-10.18c0,0-7.26,0.82-17.09,9.13
			c-9.83,8.31-13.11,9.95-13.11,9.95S228.9,180.76,228.79,180.53L228.79,180.53z"/>
		<path class="st3" d="M235.11,184.27c1.64,1.29,3.86,2.34,6.55,1.64c2.81-0.59,4.1-1.99,4.33-4.8c0,0-5.5,1.17-6.44,1.52
			C238.5,182.87,235.93,183.69,235.11,184.27L235.11,184.27z"/>
		<path class="st3" d="M225.16,181.23c0,0,3.75,2.34,6.09,0c2.34-2.34,1.17-6.2,1.17-6.2S226.33,178.65,225.16,181.23L225.16,181.23
			z"/>
		<path class="st3" d="M225.27,186.5c0,0,6.2-1.17,10.42,10.3c0,0-3.75-2.69-6.2-5.15C227.15,189.3,225.27,186.5,225.27,186.5
			L225.27,186.5z"/>
		<path class="st3" d="M211.81,183.22c0,0,6.09-1.64,11.12,9.6c0,0-3.98-2.46-6.55-4.68C213.8,185.79,211.81,183.22,211.81,183.22
			L211.81,183.22z"/>
		<path class="st3" d="M211.11,177.6c0,0,3.28,2.22,5.5-0.47c2.34-2.57,2.11-5.85,2.11-5.85S212.98,174.44,211.11,177.6
			L211.11,177.6z"/>
		<path class="st3" d="M205.61,180.64c0,0,11.7,2.22,16.04,2.81c4.33,0.47,14.51,2.93,18.73,5.5c0,0-5.5-4.8-18.26-6.44
			c-12.76-1.64-16.15-2.93-16.15-2.93S205.49,180.88,205.61,180.64L205.61,180.64z"/>
		<path class="st3" d="M122.51,172.1c0,0-5.74-0.7-9.36-2.93c-3.63-2.11-8.9-3.98-10.07-3.98c0,0,9.25,0.94,12.99,2.34
			C119.82,168.94,122.27,171.05,122.51,172.1L122.51,172.1z"/>
		<path class="st3" d="M126.72,175.96c0,0-3.04-5.03-13.81-0.7c0,0,4.33,0.94,7.49,1.05C123.68,176.43,126.72,175.96,126.72,175.96
			L126.72,175.96z"/>
		<path class="st3" d="M131.05,173.27c-1.99-0.35-4.1-1.29-5.5-3.51c-1.29-2.34-1.05-4.21,0.7-6.09c0,0,2.69,4.45,3.16,5.38
			C129.77,169.99,130.94,172.33,131.05,173.27L131.05,173.27z"/>
		<path class="st3" d="M139.48,178.3c0,0-3.98-1.17-3.86-4.33c0.12-3.04,3.63-4.8,3.63-4.8S140.53,175.84,139.48,178.3L139.48,178.3
			z"/>
		<path class="st3" d="M135.73,181.46c0,0-3.16-5.03-13.93-0.59c0,0,4.33,0.94,7.61,1.05C132.57,182.05,135.73,181.46,135.73,181.46
			L135.73,181.46z"/>
		<path class="st3" d="M146.62,188.84c0,0-2.81-5.27-13.81-1.52c0,0,4.21,1.17,7.49,1.52c0.47,0,1.05,0,1.64,0.12h3.28
			C146.03,188.84,146.62,188.84,146.62,188.84L146.62,188.84z"/>
		<path class="st3" d="M150.95,185.79c0,0-3.63-0.94-3.16-4.21c0.35-3.16,2.81-5.15,2.81-5.15S152,182.4,150.95,185.79
			L150.95,185.79z"/>
		<path class="st3" d="M148.84,188.95c-2.93-2.22-6.79-5.15-8.66-6.79c-3.04-2.69-11.35-8.31-15.92-9.6c0,0,6.91,0.82,16.27,8.66
			c4.56,3.98,7.72,6.32,9.6,7.72H148.84z"/>
		<path class="st3" d="M164.29,171.87c0,0,2.34-5.5,2.11-9.95c-0.12-4.45,0.94-10.18,1.52-11.35c0,0-3.86,8.9-4.45,13.11
			C162.77,167.89,163.47,171.16,164.29,171.87L164.29,171.87z"/>
		<path class="st3" d="M165.82,177.83c0,0-3.16-5.38,6.44-13.11c0,0-1.29,4.45-2.81,7.49C167.81,175.26,165.82,177.83,165.82,177.83
			L165.82,177.83z"/>
		<path class="st3" d="M161.02,180.41c0.82-1.99,1.05-4.45-0.47-6.79c-1.4-2.46-3.28-3.16-5.97-2.46c0,0,2.81,4.8,3.51,5.62
			C158.68,177.48,160.31,179.82,161.02,180.41L161.02,180.41z"/>
		<path class="st3" d="M161.6,188.95c0-1.4-0.47-3.16-2.11-4.1c-3.04-1.4-6.44,0.94-6.44,0.94s2.11,1.76,4.45,3.16H161.6z"/>
		<path class="st3" d="M166.4,188.84c0,0-3.16-5.38,6.55-13.11c0,0-1.4,4.45-2.93,7.49C168.51,186.26,166.4,188.84,166.4,188.84
			L166.4,188.84z"/>
		<path class="st3" d="M163.94,188.95c-0.59-4.92-0.82-11.59,0-15.1c0,0-2.22,5.27-0.94,15.1H163.94z"/>
		<path class="st3" d="M205.84,172.45c0,0,6.09-0.7,10.07-3.04c3.86-2.34,9.48-4.33,10.77-4.33c0,0-9.83,1.05-13.93,2.57
			C208.77,169.17,206.2,171.4,205.84,172.45L205.84,172.45z"/>
		<path class="st3" d="M201.28,176.66c0,0,3.39-5.5,14.86-0.7c0,0-4.56,0.94-8.08,1.05C204.67,177.13,201.28,176.66,201.28,176.66
			L201.28,176.66z"/>
		<path class="st3" d="M196.72,173.74c2.11-0.35,4.33-1.29,5.85-3.75c1.4-2.46,1.17-4.45-0.7-6.55c0,0-2.93,4.92-3.39,5.85
			C198.12,170.23,196.83,172.68,196.72,173.74L196.72,173.74z"/>
		<path class="st3" d="M187.7,179.12c0,0,4.33-1.29,4.21-4.56c-0.23-3.39-3.98-5.15-3.98-5.15S186.53,176.43,187.7,179.12
			L187.7,179.12z"/>
		<path class="st3" d="M191.68,182.63c0,0,3.39-5.5,14.86-0.7c0,0-4.56,0.94-8.08,1.05C195.08,183.1,191.68,182.63,191.68,182.63
			L191.68,182.63z"/>
		<path class="st3" d="M181.5,188.95c1.87-1.4,5.85-2.69,13.23-0.23c0,0-0.12,0.12-0.59,0.23H181.5z"/>
		<path class="st3" d="M175.41,187.2c0,0,3.86-1.05,3.39-4.45c-0.35-3.51-3.04-5.62-3.04-5.62S174.24,183.57,175.41,187.2
			L175.41,187.2z"/>
		<path class="st3" d="M179.74,188.95c2.69-2.11,5.62-4.33,7.14-5.62c3.28-2.93,12.17-8.9,17.09-10.3c0,0-7.37,0.82-17.44,9.25
			c-3.39,3.04-6.09,5.15-8.08,6.67H179.74z"/>
		<path class="st4" d="M286.14,88.3c5.97,0,10.77,4.8,10.77,10.77c0,5.97-4.8,10.77-10.77,10.77s-10.77-4.8-10.77-10.77
			C275.37,93.09,280.17,88.3,286.14,88.3L286.14,88.3z M286.14,90.29c4.92,0,8.9,3.86,8.9,8.78c0,4.92-3.98,8.9-8.9,8.9
			s-8.78-3.98-8.78-8.9C277.36,94.15,281.22,90.29,286.14,90.29L286.14,90.29z"/>
		<path class="st2" d="M281.57,104.68V93.45h5.03c1.05,0,1.76,0.12,2.22,0.35c0.59,0.12,0.94,0.47,1.29,1.05
			c0.35,0.47,0.47,1.05,0.47,1.64c0,0.82-0.23,1.52-0.7,1.99c-0.59,0.59-1.4,0.94-2.46,1.05c0.35,0.23,0.7,0.47,0.94,0.59
			c0.35,0.47,0.82,0.94,1.17,1.52l1.99,3.04h-1.87l-1.52-2.34c-0.35-0.7-0.7-1.17-1.05-1.52c-0.23-0.35-0.47-0.59-0.7-0.82
			c-0.23-0.12-0.47-0.23-0.7-0.23c-0.23,0-0.47-0.12-0.82-0.12h-1.76v5.03H281.57z M283.09,98.36h3.16c0.7,0,1.29,0,1.64-0.12
			c0.35-0.23,0.7-0.35,0.94-0.7c0.12-0.35,0.23-0.7,0.23-1.05c0-0.47-0.23-0.94-0.59-1.29c-0.35-0.35-0.94-0.47-1.87-0.47h-3.51
			V98.36z"/>
	</g>
</g>
</svg>
